<svg xmlns="http://www.w3.org/2000/svg" width="32" height="32" viewBox="0 0 32 32"><g transform="translate(-568 -348.362)"><path style="line-height:normal;text-indent:0;text-align:start;text-decoration-line:none;text-decoration-style:solid;text-decoration-color:#000;text-transform:none;block-progression:tb;isolation:auto;mix-blend-mode:normal" fill="#f05542" d="m 585.50026,353.67891 c -3.86007,0 -7,3.1399 -7,7 0,3.8601 3.13993,7 7,7 3.86007,0 7,-3.1399 7,-7 0,-1.01036 -0.21862,-1.9696 -0.60547,-2.83789 l -0.79297,0.70117 c 0.25282,0.66433 0.39844,1.38246 0.39844,2.13672 0,3.3196 -2.68037,6 -6,6 -3.31963,0 -6,-2.6804 -6,-6 0,-3.3196 2.68037,-6 6,-6 1.4713,0 2.81498,0.52701 3.85742,1.40235 l 0.74805,-0.66211 c -1.23235,-1.0808 -2.84122,-1.74024 -4.60547,-1.74024 z" font-family="sans-serif" font-weight="400"></path><path style="line-height:normal;text-indent:0;text-align:start;text-decoration-line:none;text-decoration-style:solid;text-decoration-color:#000;text-transform:none;block-progression:tb;isolation:auto;mix-blend-mode:normal" fill="#2b4255" d="m 584.74245,351.69063 c -4.72284,0.23764 -8.77585,3.73134 -9.55664,8.56445 l -3.63282,7.21876 a 0.50005,0.50005 0 0 0 0.44727,0.7246 l 1.43359,0 0,5.04493 a 0.50005,0.50005 0 0 0 0.5,0.5 l 3.98243,0 0.63671,5.56445 a 0.50005,0.50005 0 1 0 0.99219,-0.11524 l -0.68554,-6.00585 a 0.50005,0.50005 0 0 0 -0.4961,-0.44336 l -3.92969,0 0,-5.04493 a 0.50005,0.50005 0 0 0 -0.5,-0.5 l -1.12109,0 3.29688,-6.55468 a 0.50005,0.50005 0 0 0 0.0488,-0.14844 c 0.76937,-5.0458 5.4434,-8.47874 10.50391,-7.71094 1.64147,0.249 3.10749,0.91233 4.31836,1.86133 l 0.75195,-0.66602 c -1.37001,-1.11552 -3.04141,-1.89862 -4.91992,-2.18359 -0.69874,-0.10601 -1.39138,-0.13963 -2.07031,-0.10547 z m 9.01172,4.50195 -0.75,0.66602 c 1.17991,1.81216 1.73015,4.04405 1.38672,6.36328 l -4.39454,9.59766 a 0.50005,0.50005 0 0 0 -0.043,0.25 l 0.5625,6.50781 a 0.50005,0.50005 0 1 0 0.9961,-0.0859 l -0.55078,-6.3789 4.38086,-9.57032 a 0.50005,0.50005 0 0 0 0.0391,-0.13085 c 0.40152,-2.63341 -0.24953,-5.1745 -1.62696,-7.21876 z" font-family="sans-serif" font-weight="400"></path><path style="line-height:normal;text-indent:0;text-align:start;text-decoration-line:none;text-decoration-style:solid;text-decoration-color:#000;text-transform:none;block-progression:tb;isolation:auto;mix-blend-mode:normal" fill="#f05542" fill-rule="evenodd" d="M585.00026 348.67756l0 2 1 0 0-2-1 0zM589.5901 349.3846l-.75976 1.84961.92578.3789.75976-1.84961-.92578-.3789zM581.41042 349.3846l-.92578.3789.75976 1.84961.92578-.3789-.75976-1.84961zM577.20729 351.67756l-.70703.70704 1.41406 1.41406.70703-.70703-1.41406-1.41407zM594.00026 351.67606l0 1 1.5 0 0 1.5 1 0 0-2.5-2.5 0z" font-family="sans-serif" font-weight="400"></path><path style="line-height:normal;text-indent:0;text-align:start;text-decoration-line:none;text-decoration-style:solid;text-decoration-color:#000;text-transform:none;block-progression:tb;isolation:auto;mix-blend-mode:normal" fill="#f05542" fill-rule="evenodd" d="m 595.22878,352.21798 -5.91993,5.24218 -3.43359,3.04102 -2.02148,-2.01953 -3.24219,3.24219 c 0.0779,0.37051 0.20508,0.7201 0.35937,1.05468 l 2.88282,-2.88281 1.97851,1.97852 4.04492,-3.58204 6.01563,-5.32617 -0.66406,-0.74804 z" font-family="sans-serif" font-weight="400"></path></g></svg>