<svg xmlns="http://www.w3.org/2000/svg" id="Layer_1" viewBox="0 0 64 64"><path fill="#2c4355" d="M16.797 38.034a.502.502 0 0 1-.354-.146l-9.546-9.546a.5.5 0 0 1 .707-.707l9.192 9.192 8.485-8.485-9.192-9.193a.5.5 0 0 1 .707-.707l9.546 9.546a.5.5 0 0 1 0 .708l-9.192 9.192a.498.498 0 0 1-.353.146z"></path><path fill="#2c4355" d="M12.555 33.792a.502.502 0 0 1-.354-.146l-9.192-9.192a.5.5 0 0 1 0-.707l9.192-9.192a.5.5 0 0 1 .707 0l9.192 9.192a.5.5 0 0 1 0 .707l-9.192 9.192a.498.498 0 0 1-.353.146zM4.069 24.1l8.485 8.485L21.04 24.1l-8.485-8.485L4.069 24.1zM19.611 39.434a.502.502 0 0 1-.354-.146l-2.121-2.121a.5.5 0 0 1 0-.707l7.778-7.778a.5.5 0 0 1 .707 0l2.122 2.121a.5.5 0 0 1 0 .708l-7.778 7.778a.505.505 0 0 1-.354.145zm-1.414-2.621l1.414 1.414 7.071-7.071-1.415-1.414-7.07 7.071z"></path><path fill="#f15743" d="M16.775 34.769c-.384 0-.769-.146-1.061-.438a1.501 1.501 0 0 1 2.122-2.121 1.498 1.498 0 1 1-1.061 2.559zm.707-.792h.01-.01zm-.707-1.207a.5.5 0 1 0 0 .999.5.5 0 0 0 0-.999z"></path><path fill="#2c4355" d="M47.203 38.741a.502.502 0 0 1-.354-.146l-9.192-9.192a.5.5 0 0 1 0-.708l9.546-9.546a.5.5 0 0 1 .707.707l-9.192 9.192 8.485 8.485 9.192-9.192a.5.5 0 0 1 .707.707l-9.546 9.545a.494.494 0 0 1-.353.148z"></path><path fill="#2c4355" d="M51.445 34.499a.502.502 0 0 1-.354-.146l-9.192-9.192a.5.5 0 0 1 0-.707l9.192-9.192a.5.5 0 0 1 .707 0l9.192 9.192a.5.5 0 0 1 0 .707l-9.192 9.192a.498.498 0 0 1-.353.146zm-8.485-9.692l8.485 8.485 8.485-8.485-8.485-8.485-8.485 8.485zM44.389 40.141a.502.502 0 0 1-.354-.146l-7.778-7.778a.5.5 0 0 1 0-.708l2.122-2.121a.5.5 0 0 1 .707 0l7.778 7.778a.5.5 0 0 1 0 .707l-2.121 2.121a.5.5 0 0 1-.354.147zm-7.071-8.278l7.071 7.071 1.414-1.414-7.071-7.071-1.414 1.414z"></path><path fill="#f15743" d="M47.225 35.476c-.384 0-.768-.146-1.061-.438a1.505 1.505 0 0 1 0-2.121 1.505 1.505 0 0 1 2.122 0 1.502 1.502 0 0 1 0 2.122 1.502 1.502 0 0 1-1.061.437zm-.354-1.146a.5.5 0 1 0 .708-.707.5.5 0 0 0-.708.707zM45.167 40.362c0-.401-.156-.777-.439-1.06l-7.778-7.779a.514.514 0 0 0-.707 0l-1.268 1.268h-2.414l-.561-.56a.5.5 0 0 0-.354-.146h-2.622l-1.268-1.268a.5.5 0 0 0-.707 0l-7.778 7.778a1.502 1.502 0 0 0 0 2.122l3.889 3.889a2.001 2.001 0 0 0 1.414 3.413c.045 0 .09-.01.135-.013a1.988 1.988 0 0 0 .572 1.55c.39.39.902.584 1.414.584.045 0 .09-.01.135-.013-.003.046-.013.09-.013.136 0 .534.208 1.036.586 1.414.39.39.902.585 1.414.585.045 0 .09-.01.136-.013a1.99 1.99 0 0 0 3.4 1.549c.39.39.902.585 1.414.585s1.025-.195 1.415-.585c.424-.424.609-.992.572-1.548.045.003.089.013.135.013.534 0 1.036-.208 1.414-.586s.586-.88.586-1.414c0-.046-.01-.09-.013-.136.045.003.089.013.134.013.512 0 1.024-.194 1.415-.584.424-.425.609-.993.572-1.549.045.003.089.013.135.013.534 0 1.036-.208 1.414-.586s.586-.88.586-1.414-.208-1.036-.586-1.414l3.182-3.182c.284-.283.44-.661.439-1.062zm-21.299 6.365a1 1 0 0 1 0-1.414l1.414 1.414a1 1 0 0 1-1.414 0zm2.122 2.122a1.002 1.002 0 0 1 0-1.415l1.415 1.415a1.006 1.006 0 0 1-1.415 0zm2.121 2.121a.993.993 0 0 1-.293-.707.99.99 0 0 1 .293-.707l1.414 1.414a1.025 1.025 0 0 1-1.414 0zm2.121 2.121a1 1 0 0 1 0-1.414l1.414 1.414a1.025 1.025 0 0 1-1.414 0zm10.607-6.364a1.023 1.023 0 0 1-1.414 0l-3.197-3.196a.5.5 0 0 0-.707.707l.707.707 2.49 2.489c.39.39.39 1.025 0 1.415a1.004 1.004 0 0 1-1.415 0l-2.49-2.49-.707-.707a.5.5 0 0 0-.707.707l.707.707 2.49 2.49a.993.993 0 0 1 .292.707.993.993 0 0 1-.293.707 1.025 1.025 0 0 1-1.414 0l-2.49-2.49-.707-.707a.5.5 0 0 0-.707.707l3.197 3.197a1 1 0 0 1-1.415 1.414l-.353-.353-1.413-1.413-.001-.001-.707-.707-4.241-4.241-.001-.002-.002-.001-2.119-2.119-.001-.001-.001-.001-4.242-4.242a.502.502 0 0 1 0-.708l7.425-7.424 1.061 1.061a.5.5 0 0 0 .354.146h2.622l.207.208-4.524 4.523c-.029.019-.062.032-.087.058a.5.5 0 0 0 0 .707l.011.009.004.006c.005.005.011.006.016.011.657.643 1.522 1 2.444 1 .935 0 1.814-.364 2.475-1.025l1.061-1.061 7.793 7.793a.993.993 0 0 1-.001 1.413zm3.182-6.01l-3.182 3.182-7.086-7.086.354-.354a.5.5 0 0 0-.707-.707l-2.121 2.121c-.818.82-2.164.926-3.124.324l4.406-4.405h2.622c.133 0 .26-.053.354-.146l1.061-1.061 7.425 7.425a.499.499 0 0 1-.002.707z"></path><path fill="#2c4355" d="M43.5 23.672a.5.5 0 0 1-.5-.5v-6.127l-11-6.351-11 6.351v5.808a.5.5 0 0 1-1 0v-6.097c0-.179.095-.344.25-.433l11.5-6.64a.502.502 0 0 1 .5 0l11.5 6.64c.155.089.25.254.25.433v6.416a.5.5 0 0 1-.5.5z"></path><path fill="#2c4355" d="M26.525 20.796a.494.494 0 0 1-.25-.067l-5.994-3.46a.5.5 0 0 1 .5-.866l5.994 3.46a.5.5 0 0 1-.25.933zM37.473 20.674a.5.5 0 0 1-.251-.933l5.921-3.418a.499.499 0 1 1 .5.866l-5.921 3.418a.488.488 0 0 1-.249.067zM32 30.204a.5.5 0 0 1-.5-.5V17.11a.5.5 0 0 1 1 0v12.594a.5.5 0 0 1-.5.5z"></path><path fill="#2c4355" d="M32.86 23.633H31.2c-1.343 0-2.437-1.085-2.437-2.418s1.093-2.418 2.437-2.418h3.523a.5.5 0 0 1 0 1H31.2a1.43 1.43 0 0 0-1.437 1.418 1.43 1.43 0 0 0 1.437 1.418h1.66a.5.5 0 0 1 0 1z"></path><path fill="#2c4355" d="M32.812 27.458h-3.548a.5.5 0 0 1 0-1h3.548a1.413 1.413 0 0 0 0-2.825h-1.093a.5.5 0 0 1 0-1h1.093c1.33 0 2.412 1.082 2.412 2.412s-1.082 2.413-2.412 2.413zM32 15.672c-.827 0-1.5-.673-1.5-1.5s.673-1.5 1.5-1.5 1.5.673 1.5 1.5-.673 1.5-1.5 1.5zm0-2a.5.5 0 1 0 0 1 .5.5 0 0 0 0-1z"></path><circle cx="23.521" cy="25.172" r=".5" fill="#2c4355"></circle><circle cx="40.521" cy="25.172" r=".5" fill="#2c4355"></circle><circle cx="23.521" cy="23.172" r=".5" fill="#2c4355"></circle><circle cx="23.521" cy="21.172" r=".5" fill="#2c4355"></circle><circle cx="40.521" cy="23.172" r=".5" fill="#2c4355"></circle><circle cx="40.521" cy="21.172" r=".5" fill="#2c4355"></circle><ellipse cx="25.785" cy="17.305" fill="#2c4355" rx=".5" ry=".5" transform="rotate(-29.939 25.785 17.304)"></ellipse><ellipse cx="27.518" cy="16.306" fill="#2c4355" rx=".5" ry=".5" transform="rotate(-29.939 27.518 16.306)"></ellipse><ellipse cx="29.251" cy="15.308" fill="#2c4355" rx=".5" ry=".5" transform="rotate(-29.939 29.25 15.308)"></ellipse><ellipse cx="38.225" cy="17.305" fill="#2c4355" rx=".5" ry=".5" transform="rotate(-60.061 38.223 17.304)"></ellipse><ellipse cx="36.492" cy="16.306" fill="#2c4355" rx=".5" ry=".5" transform="rotate(-60.061 36.49 16.306)"></ellipse><ellipse cx="34.759" cy="15.308" fill="#2c4355" rx=".5" ry=".5" transform="rotate(-60.061 34.757 15.308)"></ellipse></svg>