<svg xmlns="http://www.w3.org/2000/svg" id="Layer_1" viewBox="0 0 64 64"><path fill="#f15743" d="M46.987 60.388l-3-13A.5.5 0 0 0 43.5 47h-4a.502.502 0 0 0-.488.612L40.025 52h-16.05l1.013-4.388A.502.502 0 0 0 24.5 47h-4a.5.5 0 0 0-.487.388l-3 13A.502.502 0 0 0 17.5 61h4a.5.5 0 0 0 .487-.388L23.052 56h17.897l1.064 4.612A.5.5 0 0 0 42.5 61h4a.502.502 0 0 0 .392-.188.505.505 0 0 0 .095-.424zM21.103 60h-2.974l2.769-12h2.974l-2.769 12zm2.179-5l.462-2h16.512l.462 2H23.282zm19.615 5l-2.769-12h2.974l2.769 12h-2.974zM51.497 40h-6c-1.208 0-2.217.86-2.449 2h-7.352l-2.676-2.676L33.002 34H35v1.5a.5.5 0 0 0 .5.5h8a.5.5 0 0 0 .5-.5v-4a.5.5 0 0 0-.5-.5H40v-3h4.5a.5.5 0 0 0 .5-.5v-4a.5.5 0 0 0-.5-.5H40v-1.5a.5.5 0 0 0-.5-.5h-7v-1h4c1.379 0 2.5-1.122 2.5-2.5S37.879 15 36.5 15h-9c-1.379 0-2.5 1.122-2.5 2.5s1.121 2.5 2.5 2.5h4v1h-7a.5.5 0 0 0-.5.5V23h-4.5a.5.5 0 0 0-.5.5V25h-3.5a.5.5 0 0 0-.5.5v4.766l-2.881 2.881a.5.5 0 0 0 0 .707L15 36.734V40h-2.503c-1.379 0-2.5 1.122-2.5 2.5s1.121 2.5 2.5 2.5h6c1.208 0 2.217-.86 2.449-2h8.319l2.861 2.861a.498.498 0 0 0 .708 0L35.695 43h7.352c.232 1.14 1.242 2 2.449 2h6c1.379 0 2.5-1.122 2.5-2.5s-1.12-2.5-2.499-2.5zM43 32v3h-7v-3h7zm1-8v3h-9v-3h9zm-16.5-5c-.827 0-1.5-.673-1.5-1.5s.673-1.5 1.5-1.5h9c.827 0 1.5.673 1.5 1.5s-.673 1.5-1.5 1.5h-9zM20 24h9v3h-9v-3zm-4 2h3v1.5a.5.5 0 0 0 .5.5h10a.5.5 0 0 0 .5-.5v-4a.5.5 0 0 0-.5-.5H25v-1h14v1h-4.5a.5.5 0 0 0-.5.5v4a.5.5 0 0 0 .5.5H39v3h-3.5a.5.5 0 0 0-.5.5V33h-5v-1.5a.5.5 0 0 0-.5-.5h-8a.5.5 0 0 0-.5.5V33h-2.305L16 30.305V26zm13 6v3h-7v-3h7zm-15.82 1.5l2.301-2.301 2.301 2.301-2.301 2.301L13.18 33.5zm6.814 9.029A1.5 1.5 0 0 1 18.497 44h-6c-.827 0-1.5-.673-1.5-1.5s.673-1.5 1.5-1.5h6a1.5 1.5 0 0 1 1.497 1.471c-.001.01-.006.019-.006.029s.006.019.006.029zm.953-.529a2.503 2.503 0 0 0-2.449-2H16v-3.305L18.695 34H21v1.5a.5.5 0 0 0 .5.5h8a.5.5 0 0 0 .5-.5V34h1.998l-.017 5.284L29.266 42h-8.319zm11.533 2.801l-2.3-2.301 2.301-2.301 2.301 2.301-2.302 2.301zM51.497 44h-6c-.827 0-1.5-.673-1.5-1.5s.673-1.5 1.5-1.5h6c.827 0 1.5.673 1.5 1.5s-.673 1.5-1.5 1.5z"></path><path fill="#2c4355" d="M58 9H32.5V6.929c.86-.224 1.5-1 1.5-1.929 0-1.103-.897-2-2-2s-2 .897-2 2c0 .929.64 1.705 1.5 1.929V9H6c-1.103 0-2 .897-2 2s.897 2 2 2h1v34.5a.5.5 0 0 0 .5.5h49a.5.5 0 0 0 .5-.5V13h1c1.103 0 2-.897 2-2s-.897-2-2-2zM31 5a1.001 1.001 0 1 1 1 1c-.552 0-1-.449-1-1zm25 42H8V13h48v34zm2-35H6a1.001 1.001 0 0 1 0-2h52a1.001 1.001 0 0 1 0 2z"></path></svg>